<svg xmlns="http://www.w3.org/2000/svg" viewBox="0 0 128 128">
  <g stroke="#000000" stroke-width="8" stroke-linecap="round">
    <line x1="64" y1="9" x2="64" y2="22" />
    <line x1="92" y1="17" x2="86" y2="29" />
    <line x1="112" y1="37" x2="101" y2="45" />
    <line x1="119" y1="64" x2="106" y2="64" />
    <line x1="112" y1="91" x2="101" y2="83" />
    <line x1="92" y1="111" x2="86" y2="99" />
    <line x1="64" y1="119" x2="64" y2="106" />
    <line x1="36" y1="111" x2="42" y2="99" />
    <line x1="16" y1="91" x2="27" y2="83" />
    <line x1="9" y1="64" x2="22" y2="64" />
    <line x1="16" y1="37" x2="27" y2="45" />
    <line x1="36" y1="17" x2="42" y2="29" />
  </g>
  <path
    fill="#000000"
    fill-rule="evenodd"
    d="M64 24a40 40 0 1 1 0 80 40 40 0 0 1 0-80Zm-10 21v38l30-19-30-19Z"
  />
  <circle cx="64" cy="64" r="60" fill="none" stroke="#000000" stroke-width="8" />
</svg>
