<svg xmlns="http://www.w3.org/2000/svg" viewBox="0 0 128 128">
  <defs>
    <linearGradient id="disc" x1="32" y1="32" x2="96" y2="96" gradientUnits="userSpaceOnUse">
      <stop offset="0%" stop-color="#F03030" />
      <stop offset="100%" stop-color="#C41010" />
    </linearGradient>
    <clipPath id="boundary">
      <circle cx="64" cy="64" r="63" />
    </clipPath>
    <filter id="glow" x="-50%" y="-50%" width="200%" height="200%">
      <feGaussianBlur in="SourceGraphic" stdDeviation="2" result="blur" />
      <feMerge>
        <feMergeNode in="blur" />
        <feMergeNode in="SourceGraphic" />
      </feMerge>
    </filter>
  </defs>

  <circle cx="64" cy="64" r="63" fill="#0A0A16" />

  <g stroke-width="1.8" stroke-linecap="round" fill="none" clip-path="url(#boundary)" filter="url(#glow)">
    <line x1="64.0" y1="23.0" x2="64.0" y2="12.0" stroke="#33ffff" />
    <line x1="68.3" y1="23.2" x2="68.8" y2="18.3" stroke="#33f6ff" />
    <line x1="72.5" y1="23.9" x2="76.1" y2="7.3" stroke="#33edff" />
    <line x1="76.7" y1="25.0" x2="78.8" y2="18.3" stroke="#33e4ff" />
    <line x1="80.7" y1="26.5" x2="89.2" y2="7.4" stroke="#33dbff" />
    <line x1="84.5" y1="28.5" x2="86.5" y2="25.0" stroke="#33d2ff" />
    <line x1="88.1" y1="30.8" x2="96.9" y2="18.7" stroke="#33c9ff" />
    <line x1="91.4" y1="33.5" x2="97.5" y2="26.8" stroke="#33c0ff" />
    <line x1="94.5" y1="36.6" x2="108.6" y2="23.9" stroke="#33b6ff" />
    <line x1="97.2" y1="39.9" x2="102.0" y2="36.4" stroke="#33adff" />
    <line x1="99.5" y1="43.5" x2="110.8" y2="37.0" stroke="#33a4ff" />
    <line x1="101.5" y1="47.3" x2="122.5" y2="38.0" stroke="#339bff" />
    <line x1="103.0" y1="51.3" x2="110.6" y2="48.9" stroke="#3392ff" />
    <line x1="104.1" y1="55.5" x2="119.8" y2="52.1" stroke="#3389ff" />
    <line x1="104.8" y1="59.7" x2="109.7" y2="59.2" stroke="#3380ff" />
    <line x1="105.0" y1="64.0" x2="125.0" y2="64.0" stroke="#3377ff" />
    <line x1="104.8" y1="68.3" x2="114.7" y2="69.3" stroke="#336eff" />
    <line x1="104.1" y1="72.5" x2="117.8" y2="75.4" stroke="#3365ff" />
    <line x1="103.0" y1="76.7" x2="123.9" y2="83.5" stroke="#335cff" />
    <line x1="101.5" y1="80.7" x2="107.9" y2="83.5" stroke="#3353ff" />
    <line x1="99.5" y1="84.5" x2="109.9" y2="90.5" stroke="#334aff" />
    <line x1="97.2" y1="88.1" x2="100.4" y2="90.5" stroke="#3341ff" />
    <line x1="94.5" y1="91.4" x2="107.8" y2="103.5" stroke="#3338ff" />
    <line x1="91.4" y1="94.5" x2="97.5" y2="101.2" stroke="#3833ff" />
    <line x1="88.1" y1="97.2" x2="100.4" y2="114.2" stroke="#4133ff" />
    <line x1="84.5" y1="99.5" x2="87.5" y2="104.7" stroke="#4a33ff" />
    <line x1="80.7" y1="101.5" x2="86.8" y2="115.2" stroke="#5333ff" />
    <line x1="76.7" y1="103.0" x2="80.1" y2="113.5" stroke="#5c33ff" />
    <line x1="72.5" y1="104.1" x2="77.3" y2="126.6" stroke="#6533ff" />
    <line x1="68.3" y1="104.8" x2="68.8" y2="109.7" stroke="#6e33ff" />
    <line x1="64.0" y1="105.0" x2="64.0" y2="122.0" stroke="#7733ff" />
    <line x1="59.7" y1="104.8" x2="58.9" y2="112.7" stroke="#8033ff" />
    <line x1="55.5" y1="104.1" x2="52.8" y2="116.8" stroke="#8933ff" />
    <line x1="51.3" y1="103.0" x2="45.1" y2="122.0" stroke="#9233ff" />
    <line x1="47.3" y1="101.5" x2="44.5" y2="107.9" stroke="#9b33ff" />
    <line x1="43.5" y1="99.5" x2="35.5" y2="113.4" stroke="#a433ff" />
    <line x1="39.9" y1="97.2" x2="34.0" y2="105.3" stroke="#ad33ff" />
    <line x1="36.6" y1="94.5" x2="23.9" y2="108.6" stroke="#b633ff" />
    <line x1="33.5" y1="91.4" x2="29.1" y2="95.4" stroke="#c033ff" />
    <line x1="30.8" y1="88.1" x2="19.5" y2="96.3" stroke="#c933ff" />
    <line x1="28.5" y1="84.5" x2="25.0" y2="86.5" stroke="#d233ff" />
    <line x1="26.5" y1="80.7" x2="6.4" y2="89.6" stroke="#db33ff" />
    <line x1="25.0" y1="76.7" x2="16.4" y2="79.5" stroke="#e433ff" />
    <line x1="23.9" y1="72.5" x2="9.2" y2="75.6" stroke="#ed33ff" />
    <line x1="23.2" y1="68.3" x2="16.3" y2="69.0" stroke="#f633ff" />
    <line x1="23.0" y1="64.0" x2="2.0" y2="64.0" stroke="#ff33ff" />
    <line x1="23.2" y1="59.7" x2="18.3" y2="59.2" stroke="#ff33f6" />
    <line x1="23.9" y1="55.5" x2="6.3" y2="51.7" stroke="#ff33ed" />
    <line x1="25.0" y1="51.3" x2="14.5" y2="47.9" stroke="#ff33e4" />
    <line x1="26.5" y1="47.3" x2="5.5" y2="38.0" stroke="#ff33db" />
    <line x1="28.5" y1="43.5" x2="23.3" y2="40.5" stroke="#ff33d2" />
    <line x1="30.8" y1="39.9" x2="20.3" y2="32.3" stroke="#ff33c9" />
    <line x1="33.5" y1="36.6" x2="27.6" y2="31.2" stroke="#ff33c0" />
    <line x1="36.6" y1="33.5" x2="23.2" y2="18.7" stroke="#ff33b6" />
    <line x1="39.9" y1="30.8" x2="37.5" y2="27.6" stroke="#ff33ad" />
    <line x1="43.5" y1="28.5" x2="35.0" y2="13.8" stroke="#ff33a4" />
    <line x1="47.3" y1="26.5" x2="43.3" y2="17.4" stroke="#ff339b" />
    <line x1="51.3" y1="25.0" x2="46.4" y2="9.8" stroke="#ff3392" />
    <line x1="55.5" y1="23.9" x2="54.0" y2="17.0" stroke="#ff3389" />
    <line x1="59.7" y1="23.2" x2="57.7" y2="4.3" stroke="#ff3380" />
  </g>

  <circle cx="64" cy="64" r="41" fill="none" stroke="#FFFFFF" stroke-opacity="0.12" stroke-width="1" />
  <circle cx="64" cy="64" r="39" fill="url(#disc)" />
  <polygon points="54,45 54,83 82,64" fill="#FFFFFF" />
</svg>
